# xmcd
#
# Track frame offsets:
#	150
#	21297
#	42965
#	60060
#	85135
#	113677
#	139630
#	163310
#	179150
#	209725
#	241492
#	266647
#	285067
#	299170
#	312975
#	323285
#
# Disc length: 4618
#
# Revision: 4
# Processed by: cddbd v1.5.1PL0 Copyright (c) Steve Scherf et al.
# Submitted via: Grip 2.94
# Normalized: r3:DSETVAR1,TDELIM( - )
#
DISCID=e8120810
DTITLE=Various Artist - Beachlife - Disk 2
DYEAR=1900
DGENRE=
TTITLE0=Morcheeba - The Sea
TTITLE1=George Benson - Song For My Brother
TTITLE2=moby - Why Does My Heart Feel So Bad
TTITLE3=Groove Armada - I See You Baby
TTITLE4=Freakpower - Turn On, Tune In, Cop Out
TTITLE5=Extortion - How Do You See Me Now?
TTITLE6=Frankie Knuckles - Tears
TTITLE7=Richie Rich - Salsa House
TTITLE8=Leftfield - Not Forgotten
TTITLE9=Everything But The Girl - Wrong
TTITLE10=Kim English - Nite Life
TTITLE11=Crustation - Flame
TTITLE12=Future Sound OF London - papua New Guinea
TTITLE13=Adam F - Circles
TTITLE14=Underworld - King Of Snake
TTITLE15=Paul Van Dyke - For An Angel
EXTD=
EXTT0=
EXTT1=
EXTT2=
EXTT3=
EXTT4=
EXTT5=
EXTT6=
EXTT7=
EXTT8=
EXTT9=
EXTT10=
EXTT11=
EXTT12=
EXTT13=
EXTT14=
EXTT15=
PLAYORDER=
